<svg preserveAspectRatio="none" width="100%" height="100%" overflow="visible" style="display: block;" viewBox="0 0 32 32" fill="none" xmlns="http://www.w3.org/2000/svg">
<g id="ic_search_32_dark">
<g id="Vector" filter="url(#filter0_d_128_1494)">
<path fill-rule="evenodd" clip-rule="evenodd" d="M14.75 8.25C11.1601 8.25 8.25 11.1601 8.25 14.75C8.25 18.3399 11.1601 21.25 14.75 21.25C18.3399 21.25 21.25 18.3399 21.25 14.75C21.25 11.1601 18.3399 8.25 14.75 8.25ZM6.25 14.75C6.25 10.0556 10.0556 6.25 14.75 6.25C19.4444 6.25 23.25 10.0556 23.25 14.75C23.25 19.4444 19.4444 23.25 14.75 23.25C10.0556 23.25 6.25 19.4444 6.25 14.75Z" fill="white"/>
<path fill-rule="evenodd" clip-rule="evenodd" d="M19.7045 19.7045C20.1438 19.2652 20.8562 19.2652 21.2955 19.7045L26.7955 25.2045C27.2348 25.6438 27.2348 26.3562 26.7955 26.7955C26.3562 27.2348 25.6438 27.2348 25.2045 26.7955L19.7045 21.2955C19.2652 20.8562 19.2652 20.1438 19.7045 19.7045Z" fill="white"/>
</g>
</g>
<defs>
<filter id="filter0_d_128_1494" x="4.25" y="6.25" width="24.875" height="24.875" filterUnits="userSpaceOnUse" color-interpolation-filters="sRGB">
<feFlood flood-opacity="0" result="BackgroundImageFix"/>
<feColorMatrix in="SourceAlpha" type="matrix" values="0 0 0 0 0 0 0 0 0 0 0 0 0 0 0 0 0 0 127 0" result="hardAlpha"/>
<feOffset dy="2"/>
<feGaussianBlur stdDeviation="1"/>
<feColorMatrix type="matrix" values="0 0 0 0 0 0 0 0 0 0 0 0 0 0 0 0 0 0 0.15 0"/>
<feBlend mode="normal" in2="BackgroundImageFix" result="effect1_dropShadow_128_1494"/>
<feBlend mode="normal" in="SourceGraphic" in2="effect1_dropShadow_128_1494" result="shape"/>
</filter>
</defs>
</svg>
