<svg preserveAspectRatio="none" width="100%" height="100%" overflow="visible" style="display: block;" viewBox="0 0 15.4297 15.9672" fill="none" xmlns="http://www.w3.org/2000/svg">
<g id="Group 1312317958">
<path id="Subtract" fill-rule="evenodd" clip-rule="evenodd" d="M13.6299 0.125964C13.2853 -0.103693 12.8197 -0.0104539 12.5898 0.333972L11.3057 2.25975H10.7217L9.4375 0.333972C9.20768 -0.0104656 8.74202 -0.103743 8.39746 0.125964C8.05312 0.355735 7.95996 0.821471 8.18945 1.166L8.91895 2.25975H8.54883C7.47187 2.25975 6.59863 3.13299 6.59863 4.20995V7.67479C6.59883 8.75158 7.47199 9.62499 8.54883 9.62499H10.2637V11.0566H6.61523C6.20115 11.0566 5.86544 11.3926 5.86523 11.8066C5.86524 12.2208 6.20103 12.5566 6.61523 12.5566H10.2637V15.4726C10.2638 15.6621 10.3341 15.8351 10.4501 15.9672C10.5079 15.766 10.5902 15.5717 10.6957 15.389L11.7637 13.5392V12.5566H12.331L13.197 11.0566H11.7637V9.62499H13.4795C13.6881 9.62494 13.8891 9.59211 14.0776 9.53136L15.4297 7.18949V4.20995C15.4297 3.13315 14.5562 2.26 13.4795 2.25975H13.1084L13.8379 1.166C14.0674 0.821486 13.9742 0.355748 13.6299 0.125964ZM5.33984 2.74315C5.33971 1.66631 4.46652 0.792956 3.38965 0.792956H0.75C0.335868 0.792956 0.000131719 1.12885 0 1.54296C6.70165e-06 1.95716 0.335791 2.29296 0.75 2.29296H3.38965C3.6381 2.29296 3.83971 2.49474 3.83984 2.74315V4.46971C3.83984 4.71824 3.63817 4.91991 3.38965 4.91991H1.9502C0.873207 4.91991 0.000131764 5.79338 0 6.8701V8.30956C6.70311e-06 9.38639 0.873129 10.2598 1.9502 10.2598H3.38965C3.6381 10.2598 3.83971 10.4615 3.83984 10.7099V11.7392C3.83984 12.9819 2.83248 13.9892 1.58984 13.9892H0.808594C0.394579 13.9894 0.0587255 14.3252 0.0585938 14.7392C0.0586015 15.1534 0.394503 15.4891 0.808594 15.4892H1.58984C3.66091 15.4892 5.33984 13.8103 5.33984 11.7392V10.7099C5.33971 9.6331 4.46652 8.75975 3.38965 8.75975H1.9502C1.70179 8.75975 1.50001 8.5582 1.5 8.30956V6.8701C1.50013 6.62157 1.70186 6.41991 1.9502 6.41991H3.38965C4.4666 6.41991 5.33984 5.54666 5.33984 4.46971V2.74315ZM8.54883 8.12499C8.30042 8.12499 8.09883 7.92315 8.09863 7.67479V6.69237H10.2637V8.12499H8.54883ZM13.4795 8.12499H11.7637V6.69237H13.9297V7.67479C13.9295 7.923 13.7277 8.12474 13.4795 8.12499ZM8.09863 4.20995C8.09863 3.96142 8.3003 3.75975 8.54883 3.75975H10.2637V5.19237H8.09863V4.20995ZM13.9297 5.19237H11.7637V3.75975H13.4795C13.7278 3.76 13.9297 3.96158 13.9297 4.20995V5.19237Z" fill="var(--fill-0, white)"/>
</g>
</svg>
