<svg preserveAspectRatio="none" width="100%" height="100%" overflow="visible" style="display: block;" viewBox="0 0 17.4104 41.1382" fill="none" xmlns="http://www.w3.org/2000/svg">
<g id="music">
<g id="Shape" opacity="0.5" filter="url(#filter0_d_128_1404)">
<path fill-rule="evenodd" clip-rule="evenodd" d="M4.66886 13.0808C3.7131 14.8497 3.40838 14.1182 2.50646 14.7371C1.22743 15.6148 2.77429 16.5842 2.77429 16.5842L6.21149 18.6203C5.83388 18.7049 5.47108 18.8929 5.16898 19.1847C4.31979 20.0047 4.27165 21.3326 5.06148 22.1505C5.8513 22.9684 7.18002 22.9666 8.02922 22.1465C8.87845 21.3264 8.92658 19.9986 8.13675 19.1807C8.11619 19.1594 8.09518 19.1388 8.0739 19.1186C8.0711 19.1109 8.06663 19.1023 8.06029 19.0929C7.84839 18.7773 3.80154 16.0782 3.80154 16.0782C3.80154 16.0782 4.98943 15.7323 5.19402 14.7875C5.42928 13.7011 4.70042 13.0225 4.66886 13.0808V13.0808Z" fill="var(--fill-0, white)"/>
</g>
<path id="Shape_2" opacity="0.9" fill-rule="evenodd" clip-rule="evenodd" d="M9.1129 28.8205C9.13697 28.8293 9.16029 28.8395 9.18363 28.8497L9.18455 28.8466C9.18472 28.8467 9.11275 28.8205 9.1129 28.8205V28.8205ZM17.1186 31.6681C17.2042 31.433 17.1825 31.1734 17.0592 30.9557C16.9358 30.7381 16.7243 30.5861 16.4786 30.5387L16.4766 30.5384L10.8223 29.5688C10.4091 29.4902 10.0053 29.7196 9.86134 30.115L7.71936 36.0001C7.555 35.5362 7.19237 35.1467 6.69384 34.9652C5.80792 34.6428 4.82835 35.0996 4.5059 35.9855C4.18346 36.8714 4.64024 37.851 5.52615 38.1734C6.41206 38.4958 7.39164 38.0391 7.71409 37.1532L7.71423 37.1532L9.41181 32.4891L16.0152 33.5606L14.2559 38.3944C14.0945 37.923 13.7291 37.5259 13.2244 37.3422C12.3385 37.0197 11.3589 37.4765 11.0364 38.3624C10.714 39.2483 11.1708 40.2279 12.0567 40.5503C12.9426 40.8728 13.9222 40.416 14.2446 39.5301L17.1186 31.6681V31.6681Z" fill="var(--fill-0, white)"/>
<path id="Shape Copy" opacity="0.3" fill-rule="evenodd" clip-rule="evenodd" d="M12.2039 0.832615C12.1882 0.838347 12.173 0.84533 12.1578 0.852264L12.157 0.849677C12.1569 0.849716 12.204 0.832579 12.2039 0.832615V0.832615ZM7.76805 2.41039C7.72064 2.28014 7.73265 2.13627 7.801 2.01569C7.86934 1.8951 7.98657 1.8109 8.1227 1.78465L8.12379 1.78444L11.2568 1.2472C11.4857 1.20365 11.7095 1.33078 11.7892 1.54986L12.976 4.81067C13.0671 4.55366 13.268 4.33782 13.5443 4.23728C14.0351 4.05862 14.5779 4.31172 14.7566 4.80259C14.9352 5.29345 14.6821 5.83622 14.1913 6.01488C13.7004 6.19354 13.1576 5.94045 12.979 5.44958L12.9789 5.44961L12.0383 2.86532L8.37942 3.45899L9.35427 6.13736C9.44369 5.87612 9.64612 5.6561 9.9258 5.55431C10.4167 5.37565 10.9594 5.62875 11.1381 6.11961C11.3168 6.61048 11.0637 7.15325 10.5728 7.33191C10.0819 7.51057 9.53916 7.25748 9.36049 6.76661L7.76805 2.41039V2.41039Z" fill="var(--fill-0, white)"/>
</g>
<defs>
<filter id="filter0_d_128_1404" x="0" y="13.0773" width="10.699" height="13.6854" filterUnits="userSpaceOnUse" color-interpolation-filters="sRGB">
<feFlood flood-opacity="0" result="BackgroundImageFix"/>
<feColorMatrix in="SourceAlpha" type="matrix" values="0 0 0 0 0 0 0 0 0 0 0 0 0 0 0 0 0 0 127 0" result="hardAlpha"/>
<feOffset dy="2"/>
<feGaussianBlur stdDeviation="1"/>
<feColorMatrix type="matrix" values="0 0 0 0 0 0 0 0 0 0 0 0 0 0 0 0 0 0 0.1 0"/>
<feBlend mode="normal" in2="BackgroundImageFix" result="effect1_dropShadow_128_1404"/>
<feBlend mode="normal" in="SourceGraphic" in2="effect1_dropShadow_128_1404" result="shape"/>
</filter>
</defs>
</svg>
