<svg preserveAspectRatio="none" width="100%" height="100%" overflow="visible" style="display: block;" viewBox="0 0 35.6 33.1" fill="none" xmlns="http://www.w3.org/2000/svg">
<g id="like">
<g id="Union" filter="url(#filter0_dd_128_1422)">
<path fill-rule="evenodd" clip-rule="evenodd" d="M10.9429 0.9C15.5143 0.9 17.8 3.96493 17.8 3.96493C17.8 3.96493 20.0857 0.9 24.6571 0.9C29.9905 0.9 33.8 5.11427 33.8 10.4779C33.8 16.6078 28.8188 22.0721 24.2762 26.1857C21.4717 28.7253 19.3238 30.4 17.8 30.4C16.2762 30.4 14.0674 28.7126 11.3238 26.1857C6.85827 22.0729 1.8 16.6078 1.8 10.4779C1.8 5.11427 5.60952 0.9 10.9429 0.9Z" fill="var(--fill-0, white)" fill-opacity="0.92"/>
</g>
<path id="Subtract" d="M33.7244 9.21264C33.7722 9.62607 33.7996 10.0485 33.7996 10.4783C33.7994 16.6079 28.8187 22.0718 24.2762 26.1853C21.4717 28.7249 19.3234 30.4001 17.7996 30.4001C16.2758 30.3999 14.0675 28.712 11.324 26.1853C7.92416 23.054 4.18174 19.1386 2.58869 14.7429C7.38104 20.6383 15.1432 25.1497 17.4246 25.1501C20.3822 25.1501 31.1149 17.565 33.7244 9.21264Z" fill="var(--fill-0, black)" fill-opacity="0.03"/>
</g>
<defs>
<filter id="filter0_dd_128_1422" x="0" y="0" width="35.6" height="33.1" filterUnits="userSpaceOnUse" color-interpolation-filters="sRGB">
<feFlood flood-opacity="0" result="BackgroundImageFix"/>
<feColorMatrix in="SourceAlpha" type="matrix" values="0 0 0 0 0 0 0 0 0 0 0 0 0 0 0 0 0 0 127 0" result="hardAlpha"/>
<feOffset dy="0.9"/>
<feGaussianBlur stdDeviation="0.9"/>
<feColorMatrix type="matrix" values="0 0 0 0 0 0 0 0 0 0 0 0 0 0 0 0 0 0 0.15 0"/>
<feBlend mode="normal" in2="BackgroundImageFix" result="effect1_dropShadow_128_1422"/>
<feColorMatrix in="SourceAlpha" type="matrix" values="0 0 0 0 0 0 0 0 0 0 0 0 0 0 0 0 0 0 127 0" result="hardAlpha"/>
<feOffset/>
<feGaussianBlur stdDeviation="0.25"/>
<feColorMatrix type="matrix" values="0 0 0 0 0 0 0 0 0 0 0 0 0 0 0 0 0 0 0.1 0"/>
<feBlend mode="normal" in2="effect1_dropShadow_128_1422" result="effect2_dropShadow_128_1422"/>
<feBlend mode="normal" in="SourceGraphic" in2="effect2_dropShadow_128_1422" result="shape"/>
</filter>
</defs>
</svg>
