<svg preserveAspectRatio="none" width="100%" height="100%" overflow="visible" style="display: block;" viewBox="0 0 22 22" fill="none" xmlns="http://www.w3.org/2000/svg">
<g id="Group">
<path id="Oval 2" d="M11 1C16.5228 1 21 5.47715 21 11C21 16.5228 16.5228 21 11 21C5.47715 21 1 16.5228 1 11C1 5.47715 5.47715 1 11 1Z" stroke="var(--stroke-0, #161823)" stroke-opacity="0.6" stroke-width="2"/>
<path id="Oval" fill-rule="evenodd" clip-rule="evenodd" d="M7.5 10.5C8.32843 10.5 9 9.60457 9 8.5C9 7.39543 8.32843 6.5 7.5 6.5C6.67157 6.5 6 7.39543 6 8.5C6 9.60457 6.67157 10.5 7.5 10.5Z" fill="var(--fill-0, #161823)" fill-opacity="0.6"/>
<path id="Oval Copy" fill-rule="evenodd" clip-rule="evenodd" d="M14.5 10.5C15.3284 10.5 16 9.60457 16 8.5C16 7.39543 15.3284 6.5 14.5 6.5C13.6716 6.5 13 7.39543 13 8.5C13 9.60457 13.6716 10.5 14.5 10.5Z" fill="var(--fill-0, #161823)" fill-opacity="0.6"/>
<path id="Oval 4" fill-rule="evenodd" clip-rule="evenodd" d="M8 12.8876C8 14.0711 9.34315 15.0305 11 15.0305C12.6569 15.0305 14 14.0711 14 12.8876C14 11.7041 8 11.7041 8 12.8876Z" fill="var(--fill-0, #161823)" fill-opacity="0.6"/>
</g>
</svg>
