<svg preserveAspectRatio="none" width="100%" height="100%" overflow="visible" style="display: block;" viewBox="0 0 19.0935 17.2126" fill="none" xmlns="http://www.w3.org/2000/svg">
<g id="Group 1312317958">
<path id="Subtract" fill-rule="evenodd" clip-rule="evenodd" d="M13.5518 0.117821C13.2302 -0.0965819 12.7956 -0.0103226 12.5811 0.31118L11.3232 2.19888H10.6055L9.34668 0.31118C9.13213 -0.010116 8.69749 -0.096514 8.37598 0.117821C8.05468 0.332373 7.96827 0.767004 8.18262 1.08852L8.92285 2.19888H7.29785C6.9114 2.19905 6.59766 2.51258 6.59766 2.89907V8.76431C6.598 9.15051 6.91161 9.46433 7.29785 9.4645H10.2637V10.9958H6.56543C6.17893 10.9958 5.86539 11.3095 5.86523 11.6959C5.86523 12.0825 6.17883 12.3961 6.56543 12.3961H10.2637V15.362C10.2639 15.7483 10.5775 16.0621 10.9639 16.0622C11.2066 16.0622 11.4205 15.9384 11.5461 15.7506L11.3454 15.5316C10.5617 14.6767 10.6195 13.3483 11.4744 12.5646C11.5353 12.5087 11.5987 12.4572 11.6641 12.4098V12.3961H11.6832C12.4117 11.8811 13.3856 11.8884 14.104 12.3961H15.3633C15.4397 12.3961 15.5133 12.3837 15.5821 12.361L16.0631 11.7198C16.0633 11.7119 16.0635 11.7039 16.0635 11.6959C16.0633 11.3097 15.7495 10.9961 15.3633 10.9958H11.6641V9.4645H14.6289C15.0153 9.4645 15.3288 9.15061 15.3291 8.76431V2.89907C15.3291 2.51247 15.0155 2.19888 14.6289 2.19888H13.0059L13.7461 1.08852C13.9605 0.76696 13.8732 0.332342 13.5518 0.117821ZM5.06543 1.43227C5.06535 1.04592 4.75251 0.73237 4.36621 0.732079H0.700195C0.313645 0.732079 8.01404e-05 1.04574 0 1.43227C0 1.81887 0.313596 2.13247 0.700195 2.13247H3.66602V5.13149H0.700195C0.313754 5.13149 0.000255523 5.44433 0 5.83071V9.49673C2.98835e-05 9.8833 0.313614 10.1969 0.700195 10.1969H3.66602V13.9284H0.700195C0.313645 13.9284 8.01404e-05 14.242 0 14.6286C0 15.0152 0.313597 15.3288 0.700195 15.3288H4.36621C4.75256 15.3285 5.06543 15.015 5.06543 14.6286V9.49673C5.06535 9.11038 4.75251 8.79682 4.36621 8.79653H1.40039V6.53091H4.36621C4.75256 6.53061 5.06543 6.21713 5.06543 5.83071V1.43227ZM10.2637 8.06411H7.99805V6.53091H10.2637V8.06411ZM13.9287 8.06411H11.6641V6.53091H13.9287V8.06411ZM10.2637 5.13052H7.99805V3.59927H10.2637V5.13052ZM13.9287 5.13052H11.6641V3.59927H13.9287V5.13052Z" fill="var(--fill-0, white)"/>
<path id="Path" d="M12.8935 14.1126L15.0935 16.5126L18.3935 12.1126" stroke="var(--stroke-0, #FE2C55)" stroke-width="1.4" stroke-linecap="round" stroke-linejoin="round"/>
</g>
</svg>
