<svg preserveAspectRatio="none" width="100%" height="100%" overflow="visible" style="display: block;" viewBox="0 0 36 36" fill="none" xmlns="http://www.w3.org/2000/svg">
<g id="tt" clip-path="url(#clip0_128_1428)">
<g id="Combined Shape" filter="url(#filter0_dd_128_1428)">
<path d="M18 2.50004C9.16309 2.50004 2.00012 8.61083 1.99998 16.5C1.99998 24.3894 9.16282 30 18 30V32.919C18.0001 33.6532 18.7591 34.1285 19.4092 33.7871C21.6766 32.5963 26.1643 30.0515 28.9717 27.2159C32.145 24.0105 34 20.3876 34 16.5C34 8.61096 26.8371 2.50006 18 2.50004ZM25.501 14.5C26.7438 14.5002 27.75 15.508 27.75 16.7491C27.7499 17.9925 26.7438 18.9999 25.501 19C24.258 19 23.25 17.9926 23.25 16.7491C23.25 15.5079 24.258 14.5 25.501 14.5ZM18 14.5C19.2426 14.5001 20.25 15.5079 20.25 16.7491C20.2499 17.9926 19.2425 19 18 19C16.7576 19 15.7502 17.9926 15.75 16.7491C15.75 15.5079 16.7575 14.5 18 14.5ZM10.499 14.5C11.7422 14.5001 12.75 15.5079 12.75 16.7491C12.7499 17.9926 11.7421 19 10.499 19C9.25795 19 8.2501 17.9926 8.24998 16.7491C8.24998 15.5079 9.25788 14.5 10.499 14.5Z" fill="var(--fill-0, white)" fill-opacity="0.95"/>
</g>
<path id="Path 8" opacity="0.1" fill-rule="evenodd" clip-rule="evenodd" d="M18 30C21 30 27.5 28.784 32 24C29.3567 27.965 24.0933 31.4932 20.8269 33.4305C19.5481 34.1889 18 33.2508 18 31.7641C18 31.1621 18 30.55 18 30Z" fill="url(#paint0_linear_128_1428)"/>
</g>
<defs>
<filter id="filter0_dd_128_1428" x="0.199981" y="1.60004" width="35.6" height="34.9998" filterUnits="userSpaceOnUse" color-interpolation-filters="sRGB">
<feFlood flood-opacity="0" result="BackgroundImageFix"/>
<feColorMatrix in="SourceAlpha" type="matrix" values="0 0 0 0 0 0 0 0 0 0 0 0 0 0 0 0 0 0 127 0" result="hardAlpha"/>
<feOffset dy="0.9"/>
<feGaussianBlur stdDeviation="0.9"/>
<feColorMatrix type="matrix" values="0 0 0 0 0 0 0 0 0 0 0 0 0 0 0 0 0 0 0.15 0"/>
<feBlend mode="normal" in2="BackgroundImageFix" result="effect1_dropShadow_128_1428"/>
<feColorMatrix in="SourceAlpha" type="matrix" values="0 0 0 0 0 0 0 0 0 0 0 0 0 0 0 0 0 0 127 0" result="hardAlpha"/>
<feOffset/>
<feGaussianBlur stdDeviation="0.25"/>
<feColorMatrix type="matrix" values="0 0 0 0 0 0 0 0 0 0 0 0 0 0 0 0 0 0 0.1 0"/>
<feBlend mode="normal" in2="effect1_dropShadow_128_1428" result="effect2_dropShadow_128_1428"/>
<feBlend mode="normal" in="SourceGraphic" in2="effect2_dropShadow_128_1428" result="shape"/>
</filter>
<linearGradient id="paint0_linear_128_1428" x1="14.7604" y1="28.8127" x2="16.3681" y2="33.8513" gradientUnits="userSpaceOnUse">
<stop/>
<stop offset="1" stop-opacity="0.01"/>
</linearGradient>
<clipPath id="clip0_128_1428">
<rect width="36" height="36" fill="white"/>
</clipPath>
</defs>
</svg>
