<svg preserveAspectRatio="none" width="100%" height="100%" overflow="visible" style="display: block;" viewBox="0 0 16 8" fill="none" xmlns="http://www.w3.org/2000/svg">
<g id="&#231;&#180;&#160;&#230;&#157;&#144;">
<path d="M7.09115 1.86737C7.0488 1.58303 6.94172 1.31119 6.77756 1.07129C6.61339 0.831382 6.3962 0.629323 6.1415 0.479544C5.61387 0.157773 5.00009 -0.00876733 4.3755 0.000355712C3.76114 0.0113574 3.16165 0.184113 2.64212 0.49987C2.1226 0.815627 1.70289 1.26232 1.42857 1.79143L1.40681 1.83595C0.74286 3.14522 1.09388 4.71634 2.32109 5.98371C2.0136 6.24556 1.25442 6.81641 0.0707509 7.691C0.0489952 7.70644 0.0312712 7.72655 0.0189915 7.74973C0.00671172 7.77291 0.000210806 7.79852 0 7.82454C0.000367125 7.86885 0.0189568 7.91122 0.0517013 7.94237C0.0849755 7.97224 0.128655 7.98905 0.174154 7.98951H1.76598C1.87492 7.98922 1.98051 7.9532 2.0653 7.88739L3.26803 6.95781C5.88844 4.753 7.27074 3.28924 7.09115 1.86737ZM5.65714 2.0559C5.65714 2.48273 5.17279 3.64012 3.38503 5.04104C2.56871 4.20311 2.2966 3.20806 2.72109 2.4225C2.90325 2.10634 3.17092 1.84351 3.49572 1.66187C3.82052 1.48023 4.19035 1.38657 4.56598 1.3908C4.67267 1.39126 4.77914 1.40002 4.88436 1.41698C5.33333 1.49292 5.6136 1.72073 5.65442 2.04019L5.65714 2.0559Z" fill="var(--fill-0, white)"/>
<path d="M8.31564 6.38173L8.46802 6.28746L8.61496 6.1932L8.7619 6.09631L9.10748 5.86326C9.24353 5.76899 9.37959 5.67734 9.49932 5.58569L9.74149 5.39978L9.97278 5.21648C11.4748 3.99101 12.1143 2.83361 11.8775 1.77834C11.7662 1.2625 11.4639 0.803134 11.027 0.485711C10.59 0.168289 10.0481 0.0144212 9.50204 0.0527272C8.75127 0.0840808 8.03415 0.361229 7.46939 0.838288C7.45379 0.848828 7.44305 0.86479 7.43945 0.882803C7.41224 0.943029 7.43946 0.99802 7.47755 1.07658C7.60157 1.34164 7.70083 1.6168 7.77415 1.8988C7.78022 1.93344 7.79472 1.96622 7.81648 1.99443C7.83823 2.02265 7.86662 2.04551 7.89932 2.06114C7.91636 2.06461 7.93397 2.06461 7.95102 2.06114C8.01088 2.05613 8.06733 2.03219 8.11156 1.99306C8.25358 1.8906 8.40168 1.79617 8.5551 1.71026C8.85906 1.54093 9.20031 1.44313 9.55102 1.42484C9.76009 1.39578 9.97272 1.44584 10.1442 1.5645C10.3157 1.68316 10.4328 1.86118 10.4707 2.06114C10.6204 2.71054 9.8585 3.63227 8.26667 4.7242L7.96462 4.92582C7.67891 5.11436 7.36326 5.31075 7.02313 5.50976L6.6449 5.73233L6.3483 5.89992L5.71701 6.24557L4.80817 6.71952C4.66344 6.79462 4.54933 6.91458 4.48436 7.05993V7.07302L4.21225 7.691C4.2014 7.71587 4.19585 7.74258 4.19592 7.76956C4.19592 7.82189 4.21732 7.87211 4.25552 7.90936C4.29372 7.9466 4.34563 7.96787 4.4 7.96856H9.67891C9.72074 7.96818 9.7615 7.95576 9.79593 7.93289C9.83036 7.91002 9.85689 7.87776 9.8721 7.84025L10.2286 6.92115C10.2388 6.89894 10.2435 6.87472 10.2422 6.85045C10.2415 6.79812 10.2194 6.74817 10.1807 6.71142C10.1419 6.67466 10.0898 6.65405 10.0354 6.65406H7.84218L7.91837 6.60692L8.31564 6.38173Z" fill="var(--fill-0, white)"/>
<path d="M15.5238 0.348618H13.551C13.5007 0.348695 13.4516 0.363871 13.4106 0.392029C13.3697 0.420188 13.3388 0.45993 13.3224 0.505731L12.985 1.43793C12.9796 1.46297 12.9796 1.48883 12.985 1.51387C12.985 1.54409 12.9913 1.57401 13.0034 1.60188C13.0156 1.62976 13.0334 1.65503 13.0558 1.67622C13.0776 1.69801 13.1038 1.71529 13.1328 1.72699C13.1619 1.7387 13.193 1.74459 13.2245 1.7443H13.9646L11.1537 7.76693C11.1429 7.7881 11.1373 7.81141 11.1374 7.83502C11.1389 7.8791 11.1573 7.92109 11.1891 7.95285C11.2053 7.9681 11.2244 7.98011 11.2454 7.9882C11.2665 7.99629 11.2889 8.00029 11.3116 7.99998H12.6068C12.6399 7.99966 12.6722 7.99041 12.7001 7.97328C12.728 7.95615 12.7504 7.93184 12.7646 7.9031L15.9565 0.992779C15.984 0.93433 15.9989 0.871049 16 0.806861C15.9993 0.68554 15.9489 0.569385 15.8597 0.483596C15.7706 0.397807 15.6499 0.349305 15.5238 0.348618Z" fill="var(--fill-0, white)"/>
</g>
</svg>
