<svg preserveAspectRatio="none" width="100%" height="100%" overflow="visible" style="display: block;" viewBox="0 0 17 10.667" fill="none" xmlns="http://www.w3.org/2000/svg">
<path id="Cellular Connection" d="M2 6.66699C2.55228 6.66699 3 7.11471 3 7.66699V9.66699C3 10.2193 2.55228 10.667 2 10.667H1C0.447715 10.667 0 10.2193 0 9.66699V7.66699C0 7.11471 0.447715 6.66699 1 6.66699H2ZM6.66699 4.66699C7.21916 4.66712 7.66699 5.11479 7.66699 5.66699V9.66699C7.66699 10.2192 7.21916 10.6669 6.66699 10.667H5.66699C5.11471 10.667 4.66699 10.2193 4.66699 9.66699V5.66699C4.66699 5.11471 5.11471 4.66699 5.66699 4.66699H6.66699ZM16 0C16.5523 0 17 0.447715 17 1V9.66699C16.9998 10.2191 16.5522 10.667 16 10.667H15C14.4478 10.667 14.0002 10.2191 14 9.66699V1C14 0.447715 14.4477 0 15 0H16ZM11.333 2.33301C11.8853 2.33301 12.333 2.78072 12.333 3.33301V9.66602C12.333 10.2183 11.8853 10.666 11.333 10.666H10.333C9.78084 10.6659 9.33301 10.2182 9.33301 9.66602V3.33301C9.33301 2.7808 9.78084 2.33314 10.333 2.33301H11.333Z" fill="var(--fill-0, black)"/>
</svg>
