<svg preserveAspectRatio="none" width="100%" height="100%" overflow="visible" style="display: block;" viewBox="0 0 36.793 30" fill="none" xmlns="http://www.w3.org/2000/svg">
<g id="Frame 1312317869">
<path id="Union" d="M27.293 0C32.5396 3.50484e-05 36.793 4.25332 36.793 9.5V20.5C36.793 25.7467 32.5396 30 27.293 30H9.5C4.2533 30 0 25.7467 0 20.5V9.5C0 4.2533 4.25329 0 9.5 0H27.293ZM9.5 3C5.91015 3 3 5.91015 3 9.5V20.5C3 24.0899 5.91015 27 9.5 27H27.293C30.8828 27 33.793 24.0898 33.793 20.5V9.5C33.793 5.91017 30.8828 3.00004 27.293 3H9.5ZM18.3965 8.5C19.2249 8.5 19.8965 9.17157 19.8965 10V13.5H23.3965C24.2249 13.5 24.8965 14.1716 24.8965 15C24.8965 15.8284 24.2249 16.5 23.3965 16.5H19.8965V20C19.8965 20.8284 19.2249 21.5 18.3965 21.5C17.5681 21.5 16.8965 20.8284 16.8965 20V16.5H13.3965C12.5681 16.5 11.8965 15.8284 11.8965 15C11.8965 14.1716 12.5681 13.5 13.3965 13.5H16.8965V10C16.8965 9.17157 17.5681 8.5 18.3965 8.5Z" fill="var(--fill-0, white)"/>
</g>
</svg>
