<svg preserveAspectRatio="none" width="100%" height="100%" overflow="visible" style="display: block;" viewBox="0 0 24 19" fill="none" xmlns="http://www.w3.org/2000/svg">
<g id="threelines" filter="url(#filter0_d_128_1499)">
<path d="M2 1C2 0.447715 2.44772 0 3 0H21C21.5523 0 22 0.447715 22 1C22 1.55228 21.5523 2 21 2H3C2.44772 2 2 1.55228 2 1Z" fill="var(--fill-0, white)"/>
<path d="M2 7.5C2 6.94772 2.44772 6.5 3 6.5H17C17.5523 6.5 18 6.94772 18 7.5C18 8.05228 17.5523 8.5 17 8.5H3C2.44772 8.5 2 8.05228 2 7.5Z" fill="var(--fill-0, white)"/>
<path d="M3 13C2.44772 13 2 13.4477 2 14C2 14.5523 2.44772 15 3 15H13C13.5523 15 14 14.5523 14 14C14 13.4477 13.5523 13 13 13H3Z" fill="var(--fill-0, white)"/>
</g>
<defs>
<filter id="filter0_d_128_1499" x="0" y="0" width="24" height="19" filterUnits="userSpaceOnUse" color-interpolation-filters="sRGB">
<feFlood flood-opacity="0" result="BackgroundImageFix"/>
<feColorMatrix in="SourceAlpha" type="matrix" values="0 0 0 0 0 0 0 0 0 0 0 0 0 0 0 0 0 0 127 0" result="hardAlpha"/>
<feOffset dy="2"/>
<feGaussianBlur stdDeviation="1"/>
<feComposite in2="hardAlpha" operator="out"/>
<feColorMatrix type="matrix" values="0 0 0 0 0 0 0 0 0 0 0 0 0 0 0 0 0 0 0.15 0"/>
<feBlend mode="normal" in2="BackgroundImageFix" result="effect1_dropShadow_128_1499"/>
<feBlend mode="normal" in="SourceGraphic" in2="effect1_dropShadow_128_1499" result="shape"/>
</filter>
</defs>
</svg>
