<svg preserveAspectRatio="none" width="100%" height="100%" overflow="visible" style="display: block;" viewBox="0 0 19.6225 18.1244" fill="none" xmlns="http://www.w3.org/2000/svg">
<g id="Group 1312318190">
<ellipse id="Ellipse 87" cx="12.2239" cy="4.61537" rx="4.49042" ry="4.50298" fill="var(--fill-0, white)"/>
<path id="Union" d="M1.50825 0.0170154C2.46529 -0.11659 3.35001 0.551173 3.48384 1.50823C3.81752 3.89403 4.40773 5.62853 5.29536 7.04924C5.80551 7.86566 6.43751 8.6158 7.23056 9.34549C7.50204 9.59528 7.85277 9.73275 8.1938 9.87346C9.13009 10.2598 10.2396 10.6053 11.436 10.7553C12.4255 10.8793 13.3776 10.9291 14.2241 10.9369C16.1588 10.9548 18.0022 12.0912 18.6127 13.9272L19.5708 16.809C19.7858 17.4563 19.3037 18.1244 18.6215 18.1244H4.85884C4.24134 18.1242 3.77134 17.5696 3.87251 16.9604L4.11161 15.5212C4.498 13.1953 3.57698 10.9032 2.32759 8.90373C1.10988 6.9547 0.39778 4.71505 0.0170431 1.9926C-0.116685 1.03549 0.551133 0.150852 1.50825 0.0170154Z" fill="var(--fill-0, white)"/>
</g>
</svg>
