<svg preserveAspectRatio="none" width="100%" height="100%" overflow="visible" style="display: block;" viewBox="0 0 16 3.03334" fill="none" xmlns="http://www.w3.org/2000/svg">
<g id="icon">
<path d="M1.5 3C2.32843 3 3 2.32843 3 1.5C3 0.671573 2.32843 0 1.5 0C0.671573 0 0 0.671573 0 1.5C0 2.32843 0.671573 3 1.5 3Z" fill="white"/>
<path d="M9.5 1.53334C9.5 2.36177 8.82843 3.03334 8 3.03334C7.17157 3.03334 6.5 2.36177 6.5 1.53334C6.5 0.704913 7.17157 0.0333405 8 0.0333405C8.82843 0.0333405 9.5 0.704913 9.5 1.53334Z" fill="white"/>
<path d="M16 1.53334C16 2.36177 15.3284 3.03334 14.5 3.03334C13.6716 3.03334 13 2.36177 13 1.53334C13 0.704913 13.6716 0.0333405 14.5 0.0333405C15.3284 0.0333405 16 0.704913 16 1.53334Z" fill="white"/>
</g>
</svg>
