<svg preserveAspectRatio="none" width="100%" height="100%" overflow="visible" style="display: block;" viewBox="0 0 20.0621 17.3847" fill="none" xmlns="http://www.w3.org/2000/svg">
<g id="icon">
<path d="M14.2168 15.9999C11.1014 15.9999 8.78002 13.79 8.78002 11.064C8.78002 8.33794 11.3056 6.12806 14.4211 6.12806C17.5365 6.12806 20.0621 8.33794 20.0621 11.064C20.0621 12.891 18.8977 14.3928 17.3512 15.2796L17.2495 16.9407C17.2495 17.305 16.8343 17.5138 16.5418 17.2964L14.7153 15.9809C14.5511 15.9935 14.3848 15.9999 14.2168 15.9999Z" fill="white"/>
<path d="M16.1998 4.73058C15.6241 4.59783 15.027 4.52806 14.4211 4.52806C10.6293 4.52806 7.18002 7.26028 7.18002 11.064C7.18002 12.4076 7.59038 13.6311 8.29642 14.6468C8.10207 14.6454 7.90929 14.6381 7.71831 14.6252L4.46682 16.518C4.02841 16.7732 3.47836 16.4569 3.47836 15.9496V13.2669C1.37141 11.937 0 9.77041 0 7.32355C0 3.27886 3.74728 0 8.3698 0C11.9489 0 15.0033 1.9657 16.1998 4.73058Z" fill="white"/>
</g>
</svg>
