<svg preserveAspectRatio="none" width="100%" height="100%" overflow="visible" style="display: block;" viewBox="0 0 20 18.5575" fill="none" xmlns="http://www.w3.org/2000/svg">
<path id="icon" d="M11.1714 18.0358C10.7621 18.312 10.3018 18.5575 9.99489 18.5575C9.68798 18.5575 9.23785 18.312 8.82864 18.0358C3.48849 14.5575 0 10.4348 0 6.28133C0 2.53708 2.59847 0 5.74936 0C6.60704 0 7.36524 0.206762 8.01715 0.571736L7.08537 3.71226C7.03283 3.88936 7.08221 4.081 7.2138 4.21065L9.35788 6.32314C9.48214 6.44557 9.53361 6.6239 9.4937 6.79371L8.8222 9.65062C8.77532 9.85005 9.02298 9.98262 9.16294 9.83302L12.0407 6.75707C12.1754 6.61303 12.2129 6.40322 12.1363 6.22143L11.1453 3.86796C11.0989 3.7578 11.0935 3.63466 11.1301 3.52086L12.098 0.510742C12.7234 0.183812 13.442 0 14.2506 0C17.4015 0 20 2.53708 20 6.28133C20 10.4348 16.5115 14.5575 11.1714 18.0358Z" fill="var(--fill-0, white)"/>
</svg>
